subject02_running_RRA_states
nRows=6
nColumns=38

# SIMM Motion File Header:
name subject02_running_RRA_states
datacolumns 38
datarows 6
otherdata 1
range 1.37299999999995910000 1.37549999999995890000
endheader
time	pelvis_tx	pelvis_ty	pelvis_tz	pelvis_tilt	pelvis_list	pelvis_rotation	hip_flexion_r	hip_adduction_r	hip_rotation_r	knee_angle_r	ankle_angle_r	subtalar_angle_r	mtp_angle_r	hip_flexion_l	hip_adduction_l	hip_rotation_l	knee_angle_l	ankle_angle_l	subtalar_angle_l	mtp_angle_l	lumbar_extension	lumbar_bending	lumbar_rotation	arm_flex_r	arm_add_r	arm_rot_r	elbow_flex_r	pro_sup_r	wrist_flex_r	wrist_dev_r	arm_flex_l	arm_add_l	arm_rot_l	elbow_flex_l	pro_sup_l	wrist_flex_l	wrist_dev_l	
      1.37299999999995910000	      0.84439041418743188000	      0.97101209755170015000	     -0.21299506825950082000	      0.32667951113576776000	      0.72128488487687259000	     -5.12672924544812150000	    -31.29634961122732400000	      0.33756440644032015000	      4.35616208513505040000	    -12.36738576105654800000	    -22.10288490978056300000	      0.00000000000007328168	      0.00000000000021375617	     34.19277023395768800000	      0.40031602394762178000	     -8.08316947620005520000	    -38.10293049944513700000	      8.88895885630154940000	     -0.00000000000042513225	     -0.00000000000024352271	     -6.25344098352065460000	      0.40256425287497011000	     20.07243179800145000000	    -15.03292073724181900000	    -39.67506955121302100000	     -7.89025169006876760000	    112.78760520974649000000	    118.90203034678402000000	     -0.00000000000004491254	     -0.00000000000004275327	    -41.11460695114381300000	    -28.51402459215554000000	      5.83372092630650220000	     79.59974939227261400000	    107.67491077091491000000	      0.00000000000000952872	     -0.00000000000005377859	   
      1.37349999999995910000	      0.84445805279658737000	      0.97101843838999535000	     -0.21305461881528504000	      0.33731183623392041000	      0.71170970702693226000	     -5.11204696050293530000	    -31.30441672779089400000	      0.34123857027679644000	      4.29338888149699200000	    -12.52211394763030600000	    -22.21334403549526500000	      0.00000000000007361091	      0.00000000000021419408	     34.11865296900234800000	      0.41876499126360933000	     -8.06449783956536410000	    -37.78770175638590700000	      8.85396745171734170000	     -0.00000000000042558821	     -0.00000000000024389731	     -6.26384138129487590000	      0.41383648618019903000	     20.09711223929613800000	    -15.01378827544927800000	    -39.66758086396578900000	     -7.90609482173115550000	    112.84619850239349000000	    118.91748993511257000000	     -0.00000000000004497052	     -0.00000000000004276575	    -41.14875443899705200000	    -28.54400436413531500000	      5.82207576096465650000	     79.59590952130095300000	    107.65394750171441000000	      0.00000000000000956936	     -0.00000000000005379549	   
      1.37399999999995900000	      0.84452510930272429000	      0.97102253903232205000	     -0.21311423042609598000	      0.34809357404116481000	      0.70193334431206011000	     -5.09714749618763110000	    -31.31136381715332500000	      0.34522671282106521000	      4.23050500142213880000	    -12.67930952716768000000	    -22.32227904169369000000	      0.00000000000007394005	      0.00000000000021463308	     34.04446419457758600000	      0.43702506657939905000	     -8.04550624720008050000	    -37.47420976981690200000	      8.81876424305461980000	     -0.00000000000042604448	     -0.00000000000024427102	     -6.27447619922382230000	      0.42525415314332732000	     20.12128873914419500000	    -14.99471516898622700000	    -39.65994822742782600000	     -7.92142249833646160000	    112.90362669674808000000	    118.93268471542905000000	     -0.00000000000004502999	     -0.00000000000004277565	    -41.18213915904922100000	    -28.57384758104134200000	      5.81092344526701420000	     79.59197519656059700000	    107.63309669827999000000	      0.00000000000000960962	     -0.00000000000005381151	   
      1.37449999999995900000	      0.84459158211367058000	      0.97102439486497039000	     -0.21317390135091638000	      0.35902422110092586000	      0.69196095945115799000	     -5.08203237216878460000	    -31.31719588326574300000	      0.34952081060294943000	      4.16751583621816120000	    -12.83896093440114500000	    -22.42968908974323500000	      0.00000000000007426876	      0.00000000000021507231	     33.97021909193235000000	      0.45509817962008992000	     -8.02620079598367480000	    -37.16248634084382700000	      8.78335946860799940000	     -0.00000000000042650067	     -0.00000000000024464324	     -6.28534328296334530000	      0.43681127032316763000	     20.14496268420194600000	    -14.97570177555493100000	    -39.65217203277966700000	     -7.93623279218922400000	    112.95988551295244000000	    118.94761613278652000000	     -0.00000000000004508754	     -0.00000000000004278163	    -41.21475930964645300000	    -28.60355355738661100000	      5.80026638751782020000	     79.58794815316814200000	    107.61236237636729000000	      0.00000000000000964936	     -0.00000000000005382698	   
      1.37499999999995890000	      0.84465746951622422000	      0.97102400127786381000	     -0.21323362975567814000	      0.37010323566394099000	      0.68179770866561817000	     -5.06670318338851630000	    -31.32191795504081000000	      0.35411279748725250000	      4.10442667243978400000	    -13.00105649431406000000	    -22.53557200285109700000	      0.00000000000007459736	      0.00000000000021550981	     33.89593280003721500000	      0.47298620313187389000	     -8.00658763567502160000	    -36.85256304882210500000	      8.74776315381579290000	     -0.00000000000042695642	     -0.00000000000024501594	     -6.29644045964546350000	      0.44850186752817450000	     20.16813552091274500000	    -14.95674845516653300000	    -39.64425269633936500000	     -7.95052379531050680000	    113.01497074478188000000	    118.96228567808572000000	     -0.00000000000004514641	     -0.00000000000004278797	    -41.24661310368198700000	    -28.63312158973068500000	      5.79010691985274660000	     79.58383005624202200000	    107.59174857672365000000	      0.00000000000000968915	     -0.00000000000005384047	   
      1.37549999999995890000	      0.84472276973680926000	      0.97102135373118548000	     -0.21329341382244107000	      0.38133006786188933000	      0.67144878821260545000	     -5.05116151730083460000	    -31.32553511443218100000	      0.35899458156696962000	      4.04124284187029930000	    -13.16558425048235200000	    -22.63992720861607600000	      0.00000000000007492525	      0.00000000000021594701	     33.82162040865509300000	      0.49069106749073577000	     -7.98667295835524270000	    -36.54447137217374600000	      8.71198555891458600000	     -0.00000000000042741207	     -0.00000000000024538668	     -6.30776555847715240000	      0.46031993545911787000	     20.19080867645043800000	    -14.93785553201541600000	    -39.63619062234763400000	     -7.96429361126741500000	    113.06887818933633000000	    118.97669487518839000000	     -0.00000000000004520604	     -0.00000000000004279909	    -41.27769874450108700000	    -28.66255098793457600000	      5.78044734788990940000	     79.57962252021536600000	    107.57125932269952000000	      0.00000000000000972898	     -0.00000000000005385207	   
